# xmcd
#
# Track frame offsets:
#	150
#	24345
#	43545
#	62065
#	81937
#	106465
#	131520
#	160952
#	177220
#	194465
#
# Disc length: 2902 seconds
#
# Revision: 0
# Processed by: cddbd v1.5.2PL0 Copyright (c) Steve Scherf et al.
# Submitted via: EZCDAudioConverter 7.1.0.1
#
DISCID=800b540a
DTITLE=付笛生/任静 - 知心爱人
DYEAR=1997
DGENRE=
TTITLE0=知心爱人
TTITLE1=一枚硬币
TTITLE2=慌乱
TTITLE3=季节
TTITLE4=知心爱人(伴奏)
TTITLE5=一生相随
TTITLE6=星空相对
TTITLE7=众人划桨开大船
TTITLE8=拉琴的人
TTITLE9=为你挡风
EXTD=
EXTT0=
EXTT1=
EXTT2=
EXTT3=
EXTT4=
EXTT5=
EXTT6=
EXTT7=
EXTT8=
EXTT9=
PLAYORDER=
